
      <svg
        width="18"
        height="18"
        viewBox="0 0 18 18"
        fill="none"
        xmlns="http://www.w3.org/2000/svg"
      >
        <path
          fill-rule="evenodd"
          clip-rule="evenodd"
          d="M8.83182 10.0991C8.33007 10.0991 7.82982 9.93336 7.41132 9.60186L4.04757 6.88986C3.80532 6.69486 3.76782 6.34011 3.96207 6.09861C4.15782 5.85786 4.51182 5.81961 4.75332 6.01386L8.11407 8.72286C8.53632 9.05736 9.13107 9.05736 9.55632 8.71986L12.8833 6.01536C13.1248 5.81811 13.4788 5.85561 13.6753 6.09711C13.8711 6.33786 13.8343 6.69186 13.5936 6.88836L10.2606 9.59736C9.83907 9.93186 9.33507 10.0991 8.83182 10.0991Z"
          fill="black"
        />
        <mask
          id="mask0_3432_575"
          // style="mask-type:luminance"
          maskUnits="userSpaceOnUse"
          x="0"
          y="1"
          width="17"
          height="16"
        >
          <path
            fill-rule="evenodd"
            clip-rule="evenodd"
            d="M0.75 1.5H16.8749V16.125H0.75V1.5Z"
            fill="white"
          />
        </mask>
        <g mask="url(#mask0_3432_575)">
          <path
            fill-rule="evenodd"
            clip-rule="evenodd"
            d="M5.12925 15H12.4943C12.4958 14.9985 12.5017 15 12.5063 15C13.362 15 14.121 14.694 14.703 14.1128C15.3787 13.44 15.75 12.4732 15.75 11.391V6.24C15.75 4.14525 14.3805 2.625 12.4943 2.625H5.13075C3.2445 2.625 1.875 4.14525 1.875 6.24V11.391C1.875 12.4732 2.247 13.44 2.922 14.1128C3.504 14.694 4.26375 15 5.11875 15H5.12925ZM5.1165 16.125C3.95925 16.125 2.92575 15.705 2.12775 14.91C1.239 14.0235 0.75 12.774 0.75 11.391V6.24C0.75 3.53775 2.63325 1.5 5.13075 1.5H12.4943C14.9918 1.5 16.875 3.53775 16.875 6.24V11.391C16.875 12.774 16.386 14.0235 15.4972 14.91C14.7 15.7042 13.6658 16.125 12.5063 16.125H12.4943H5.13075H5.1165Z"
            fill="black"
          />
        </g>
      </svg>
