<svg width="16" height="16" viewBox="0 0 16 16" fill="none" xmlns="http://www.w3.org/2000/svg">
<path fill-rule="evenodd" clip-rule="evenodd" d="M6.37136 14.3041C3.92336 14.3041 1.83203 13.9341 1.83203 12.4515C1.83203 10.9688 3.91003 9.63281 6.37136 9.63281C8.81936 9.63281 10.91 10.9561 10.91 12.4381C10.91 13.9201 8.8327 14.3041 6.37136 14.3041Z" stroke="black" stroke-linecap="round" stroke-linejoin="round"/>
<path fill-rule="evenodd" clip-rule="evenodd" d="M6.37224 7.51789C7.97891 7.51789 9.28158 6.21522 9.28158 4.60855C9.28158 3.00189 7.97891 1.69922 6.37224 1.69922C4.76558 1.69922 3.46291 3.00189 3.46291 4.60855C3.45691 6.20989 4.75091 7.51255 6.35158 7.51789H6.37224Z" stroke="black" stroke-linecap="round" stroke-linejoin="round"/>
<path d="M11.1989 6.71779C12.1342 6.46779 12.8236 5.61513 12.8236 4.60046C12.8242 3.54179 12.0729 2.65779 11.0742 2.45312" stroke="black" stroke-linecap="round" stroke-linejoin="round"/>
<path d="M11.6387 9.10156C12.964 9.10156 14.096 10.0002 14.096 10.8022C14.096 11.2749 13.706 11.7602 13.1127 11.8996" stroke="black" stroke-linecap="round" stroke-linejoin="round"/>
</svg>
