<svg width="150" height="60" viewBox="0 0 215 63" fill="none" xmlns="http://www.w3.org/2000/svg">
<path d="M67.9744 38.3791C68.8545 36.9449 69.9954 35.8202 71.3971 35.0053C72.8314 34.1904 74.4612 33.7829 76.2867 33.7829V40.9706H74.4775C72.3261 40.9706 70.6962 41.4759 69.5879 42.4864C68.5122 43.4969 67.9744 45.2572 67.9744 47.7672V61.2625H61.1289V34.1741H67.9744V38.3791Z" fill="#695EED"/>
<path d="M88.8675 39.7971V52.9013C88.8675 53.814 89.0794 54.4823 89.5032 54.906C89.9595 55.2972 90.7093 55.4928 91.7524 55.4928H94.9306V61.2625H90.6278C84.858 61.2625 81.9732 58.4591 81.9732 52.8524V39.7971H78.746V34.1741H81.9732V27.4753H88.8675V34.1741H94.9306V39.7971H88.8675Z" fill="#695EED"/>
<path d="M125.036 47.1315C125.036 48.1095 124.971 48.9896 124.84 49.7719H105.037C105.2 51.7278 105.885 53.2599 107.091 54.3682C108.297 55.4765 109.78 56.0306 111.54 56.0306C114.083 56.0306 115.892 54.9386 116.968 52.7546H124.351C123.569 55.3624 122.069 57.5138 119.853 59.2089C117.636 60.8713 114.914 61.7026 111.687 61.7026C109.079 61.7026 106.732 61.1321 104.646 59.9912C102.592 58.8177 100.979 57.1715 99.8053 55.0527C98.6644 52.9339 98.094 50.4891 98.094 47.7183C98.094 44.9149 98.6644 42.4538 99.8053 40.335C100.946 38.2162 102.544 36.5863 104.597 35.4454C106.651 34.3045 109.014 33.734 111.687 33.734C114.262 33.734 116.56 34.2882 118.581 35.3965C120.635 36.5048 122.216 38.0858 123.324 40.1394C124.465 42.1604 125.036 44.4912 125.036 47.1315ZM117.946 45.1757C117.913 43.4154 117.278 42.0138 116.039 40.9706C114.8 39.8949 113.284 39.3571 111.491 39.3571C109.796 39.3571 108.362 39.8786 107.189 40.9217C106.048 41.9323 105.347 43.3502 105.086 45.1757H117.946Z" fill="#695EED"/>
<path d="M163.673 33.7829C166.998 33.7829 169.671 34.8097 171.692 36.8634C173.745 38.8844 174.772 41.7204 174.772 45.3713V61.2625H167.927V46.3003C167.927 44.1815 167.389 42.5679 166.313 41.4596C165.237 40.3187 163.771 39.7482 161.913 39.7482C160.054 39.7482 158.571 40.3187 157.463 41.4596C156.387 42.5679 155.849 44.1815 155.849 46.3003V61.2625H149.004V46.3003C149.004 44.1815 148.466 42.5679 147.39 41.4596C146.315 40.3187 144.848 39.7482 142.99 39.7482C141.099 39.7482 139.6 40.3187 138.491 41.4596C137.416 42.5679 136.878 44.1815 136.878 46.3003V61.2625H130.032V34.1741H136.878V37.4501C137.758 36.3092 138.882 35.4128 140.252 34.7608C141.653 34.1089 143.185 33.7829 144.848 33.7829C146.967 33.7829 148.857 34.2393 150.52 35.152C152.182 36.0321 153.47 37.3034 154.383 38.9659C155.263 37.4012 156.534 36.1462 158.196 35.2009C159.891 34.2556 161.717 33.7829 163.673 33.7829Z" fill="#695EED"/>
<path d="M183.908 31.3861C182.702 31.3861 181.692 31.0113 180.877 30.2615C180.095 29.4792 179.703 28.5176 179.703 27.3767C179.703 26.2358 180.095 25.2904 180.877 24.5407C181.692 23.7584 182.702 23.3672 183.908 23.3672C185.115 23.3672 186.109 23.7584 186.891 24.5407C187.706 25.2904 188.114 26.2358 188.114 27.3767C188.114 28.5176 187.706 29.4792 186.891 30.2615C186.109 31.0113 185.115 31.3861 183.908 31.3861ZM187.282 34.6133L187.023 54.2768L180.437 61.7017V34.6133H187.282Z" fill="#695EED"/>
<path d="M203.923 61.7017C201.706 61.7017 199.718 61.3106 197.957 60.5282C196.197 59.7133 194.795 58.6213 193.752 57.2522C192.742 55.8831 192.188 54.3673 192.09 52.7049H198.984C199.115 53.748 199.62 54.6118 200.5 55.2964C201.413 55.9809 202.537 56.3232 203.874 56.3232C205.178 56.3232 206.188 56.0624 206.905 55.5408C207.655 55.0193 208.03 54.351 208.03 53.5361C208.03 52.656 207.574 52.004 206.661 51.5803C205.781 51.1239 204.363 50.6349 202.407 50.1134C200.386 49.6244 198.723 49.1192 197.419 48.5976C196.148 48.076 195.04 47.2774 194.095 46.2017C193.182 45.126 192.725 43.6754 192.725 41.8499C192.725 40.3505 193.149 38.9814 193.997 37.7427C194.877 36.504 196.116 35.526 197.713 34.8089C199.343 34.0918 201.25 33.7332 203.434 33.7332C206.661 33.7332 209.236 34.5481 211.159 36.178C213.083 37.7753 214.142 39.943 214.338 42.6812H207.785C207.688 41.6055 207.231 40.7579 206.416 40.1386C205.634 39.4866 204.575 39.1607 203.238 39.1607C201.999 39.1607 201.038 39.3888 200.353 39.8452C199.701 40.3016 199.375 40.9372 199.375 41.7521C199.375 42.6649 199.832 43.3657 200.744 43.8547C201.657 44.311 203.075 44.7837 204.998 45.2727C206.954 45.7616 208.568 46.2669 209.839 46.7884C211.11 47.31 212.202 48.1249 213.115 49.2332C214.06 50.309 214.549 51.7432 214.582 53.5361C214.582 55.1008 214.142 56.5025 213.262 57.7412C212.414 58.9799 211.176 59.9578 209.546 60.6749C207.948 61.3595 206.074 61.7017 203.923 61.7017Z" fill="#695EED"/>
<path d="M6.83185 0L0 13.547L22.1596 62.1333L32.8912 57.1367L31.9319 55.0334L58.6234 24.8465L50.5344 17.545L49.9232 18.2364L33.5797 17.8649L36.9152 21.155L30.2479 27.9144L41.1467 28.1622L26.9824 44.1813L6.83185 0Z" fill="#050505"/>
</svg>
